<?xml version="1.0" encoding="UTF-8"?>
<svg id="Artwork" xmlns="http://www.w3.org/2000/svg" width="361" height="361" version="1.1" viewBox="0 0 361 361">
  <!-- Generator: Adobe Illustrator 29.5.1, SVG Export Plug-In . SVG Version: 2.1.0 Build 141)  -->
  <path d="M180.5-.02C80.81-.02,0,80.79,0,180.48s80.81,180.5,180.5,180.5,180.5-80.81,180.5-180.5S280.19-.02,180.5-.02ZM180.5,284.67v-.1c-57.1,0-103.6-46.5-103.6-103.59,2.8-70.89,55.7-103.09,103.6-103.09s100.8,32.2,103.6,102.89c0,57.39-46.5,103.89-103.6,103.89Z"/>
  <path d="M180.5,89.69c-60.6,0-90.1,47.4-91.8,91.49,0,50.39,41.2,91.59,91.8,91.59s91.8-41.2,91.8-91.79c-1.7-43.8-31.2-91.29-91.8-91.29ZM146.5,229.88v-97.69l82.8,46.7-82.8,50.99Z"/>
</svg>