<?xml version="1.0" encoding="UTF-8"?>
<svg id="Artwork" xmlns="http://www.w3.org/2000/svg" width="361" height="361" version="1.1" viewBox="0 0 361 361">
  <!-- Generator: Adobe Illustrator 29.5.1, SVG Export Plug-In . SVG Version: 2.1.0 Build 141)  -->
  <g>
    <path d="M563.4,1209.5h1v3.6h0c.2-.3.4-.6.8-.7.3-.2.7-.3,1.1-.3.8,0,2,.5,2,2.5v3.4h-1v-3.3c0-.9-.3-1.7-1.3-1.7s-1.2.5-1.4,1.1v4h-1v-8.5h0l-.2-.1Z"/>
    <path d="M571.3,1210.5v1.7h1.5v.8h-1.5v3.1c0,.7.2,1.1.8,1.1h.6v.8c-.2,0-.5.1-.9.1s-.9-.2-1.1-.4c-.3-.3-.4-.8-.4-1.5v-3.2h-.9v-.8h.9v-1.4l1-.3h0Z"/>
    <path d="M575.2,1210.5v1.7h1.5v.8h-1.5v3.1c0,.7.2,1.1.8,1.1h.6v.8c-.2,0-.5.1-.9.1s-.9-.2-1.1-.4c-.3-.3-.4-.8-.4-1.5v-3.2h-.9v-.8h.9v-1.4l1-.3h0Z"/>
    <path d="M577.9,1214.1v-1.9h1v1h0c.4-.7,1.1-1.1,2.1-1.1,1.4,0,2.5,1.2,2.5,2.9s-1.3,3.1-2.6,3.1-1.4-.3-1.8-.9h0v3.2h-1v-6.3h-.2ZM579,1215.6v.4c.2.7.8,1.2,1.6,1.2,1.1,0,1.8-.9,1.8-2.2s-.6-2.2-1.7-2.2-1.4.5-1.6,1.3v1.4h0l-.1.1Z"/>
    <path d="M584.6,1216.9c.3.2.9.4,1.4.4.8,0,1.1-.4,1.1-.9s-.3-.8-1.1-1.1c-1-.4-1.5-.9-1.5-1.6s.8-1.7,2-1.7,1.1.2,1.4.4l-.3.8c-.2-.1-.7-.3-1.2-.3s-1,.4-1,.8.3.7,1.1,1c1,.4,1.5.9,1.5,1.8s-.8,1.7-2.2,1.7-1.2-.2-1.6-.4l.3-.8h0l.1-.1Z"/>
    <path d="M589.3,1213.2c0-.4.3-.8.7-.8s.7.3.7.8c0,.4-.3.7-.7.7s-.7-.3-.7-.7ZM589.3,1217.4c0-.4.3-.8.7-.8s.7.3.7.8c0,.4-.3.7-.7.7s-.7-.3-.7-.7Z"/>
    <path d="M591.1,1218.5l3.3-8.7h.8l-3.4,8.7h-.8.1Z"/>
    <path d="M595.2,1218.5l3.3-8.7h.8l-3.4,8.7h-.8.1Z"/>
    <path d="M604.4,1217.8c-.3.1-.9.3-1.7.3-1.8,0-2.9-1.2-2.9-3s1.2-3.1,3.1-3.1,1.2.2,1.5.3l-.2.8c-.2-.1-.7-.3-1.2-.3-1.3,0-2,1-2,2.2s.9,2.2,2,2.2,1-.2,1.3-.3l.2.8h0l-.1.1Z"/>
    <path d="M610.8,1215.1c0,2.2-1.5,3.1-2.9,3.1s-2.8-1.2-2.8-3,1.3-3.1,2.9-3.1,2.8,1.2,2.8,3h0ZM606.2,1215.1c0,1.3.7,2.2,1.8,2.2s1.8-.9,1.8-2.2-.5-2.2-1.7-2.2-1.8,1.2-1.8,2.2h-.1Z"/>
    <path d="M612.1,1213.8v-1.6h.9v.9h0c.3-.6.9-1.1,1.8-1.1s1.4.5,1.6,1.2h0c.2-.3.4-.6.7-.8.3-.3.7-.4,1.3-.4s1.9.5,1.9,2.5v3.4h-1v-3.3c0-1.1-.4-1.8-1.3-1.8s-1.1.4-1.2,1v4.1h-1v-3.5c0-.9-.4-1.6-1.2-1.6s-1.1.5-1.3,1.1v4h-1v-4.2h0l-.2.1Z"/>
    <path d="M622.1,1213.8v-1.6h.9v.9h0c.3-.6.9-1.1,1.8-1.1s1.4.5,1.6,1.2h0c.2-.3.4-.6.7-.8.3-.3.7-.4,1.3-.4s1.9.5,1.9,2.5v3.4h-1v-3.3c0-1.1-.4-1.8-1.3-1.8s-1.1.4-1.2,1v4.1h-1v-3.5c0-.9-.4-1.6-1.2-1.6s-1.1.5-1.3,1.1v4h-1v-4.2h0l-.2.1Z"/>
    <path d="M637.4,1215.1c0,2.2-1.5,3.1-2.9,3.1s-2.8-1.2-2.8-3,1.3-3.1,2.9-3.1,2.8,1.2,2.8,3h0ZM632.8,1215.1c0,1.3.7,2.2,1.8,2.2s1.8-.9,1.8-2.2-.5-2.2-1.7-2.2-1.8,1.2-1.8,2.2h-.1Z"/>
    <path d="M638.7,1213.8v-1.6h.9v1h0c.3-.6,1-1.1,1.9-1.1s2,.5,2,2.5v3.5h-1v-3.3c0-.9-.3-1.7-1.3-1.7s-1.2.5-1.4,1.1v4h-1v-4.2h0l-.1-.2Z"/>
    <path d="M645.2,1216.9c.3.2.9.4,1.4.4.8,0,1.1-.4,1.1-.9s-.3-.8-1.1-1.1c-1-.4-1.5-.9-1.5-1.6s.8-1.7,2-1.7,1.1.2,1.4.4l-.3.8c-.2-.1-.7-.3-1.2-.3s-1,.4-1,.8.3.7,1.1,1c1,.4,1.5.9,1.5,1.8s-.8,1.7-2.2,1.7-1.2-.2-1.6-.4l.3-.8h0l.1-.1Z"/>
    <path d="M649.8,1217.4c0-.4.3-.8.7-.8s.7.3.7.8-.3.8-.7.8-.7-.3-.7-.8Z"/>
    <path d="M652.9,1212.2l.8,2.9c.2.7.3,1.2.4,1.8h0c.1-.6.3-1.2.5-1.8l1-3h.9l.9,2.9c.2.7.4,1.3.5,1.9h0c0-.6.2-1.2.4-1.9l.8-2.9h1l-1.9,5.8h-1l-.9-2.8c-.2-.7-.4-1.2-.5-1.9h0c-.1.7-.3,1.3-.5,1.9l-.9,2.8h-1l-1.8-5.8h1.1l.2.1Z"/>
    <path d="M662.5,1210.6c0,.4-.2.7-.7.7s-.6-.3-.6-.7.3-.7.7-.7.7.3.7.7h-.1ZM661.3,1218v-5.8h1v5.8h-1Z"/>
    <path d="M665.2,1214.9h0c.1-.2.3-.5.5-.7l1.7-2h1.3l-2.2,2.4,2.5,3.4h-1.3l-2-2.8-.5.6v2.2h-1v-8.5h1v5.4h0Z"/>
    <path d="M671.1,1210.6c0,.4-.2.7-.7.7s-.6-.3-.6-.7.3-.7.7-.7.7.3.7.7h-.1ZM670,1218v-5.8h1v5.8h-1Z"/>
    <path d="M672.8,1213.8v-1.6h.9v.9h0c.3-.6.9-1.1,1.8-1.1s1.4.5,1.6,1.2h0c.2-.3.4-.6.7-.8.3-.3.7-.4,1.3-.4s1.9.5,1.9,2.5v3.4h-1v-3.3c0-1.1-.4-1.8-1.3-1.8s-1.1.4-1.2,1v4.1h-1v-3.5c0-.9-.4-1.6-1.2-1.6s-1.1.5-1.3,1.1v4h-1v-4.2h0l-.2.1Z"/>
    <path d="M683.4,1215.3c0,1.4.9,2,2,2s1.2-.1,1.6-.3l.2.8c-.4.2-1,.4-1.9.4-1.8,0-2.8-1.2-2.8-2.9s1-3.1,2.7-3.1,2.4,1.7,2.4,2.7,0,.4,0,.5h-4.1l-.1-.1ZM686.5,1214.5c0-.7-.3-1.7-1.5-1.7s-1.5,1-1.6,1.7h3.1Z"/>
    <path d="M693.8,1209.5v8.5h-1v-1h0c-.3.7-1,1.1-2,1.1-1.4,0-2.5-1.2-2.5-2.9,0-1.9,1.2-3.1,2.6-3.1s1.5.4,1.8.9h0v-3.5h1.1ZM692.7,1214.6v-.4c-.2-.7-.7-1.2-1.5-1.2s-1.7,1-1.7,2.2.6,2.2,1.7,2.2,1.4-.5,1.5-1.3v-1.5h0Z"/>
    <path d="M696.7,1210.6c0,.4-.2.7-.7.7s-.6-.3-.6-.7.3-.7.7-.7.7.3.7.7h-.1ZM695.5,1218v-5.8h1v5.8h-1Z"/>
    <path d="M701.6,1218v-.7h-.1c-.3.5-1,.9-1.8.9s-1.8-.8-1.8-1.7c0-1.4,1.2-2.2,3.5-2.2h0c0-.6-.1-1.5-1.3-1.5s-1.1.2-1.5.4l-.2-.7c.5-.3,1.2-.5,1.9-.5,1.8,0,2.2,1.2,2.2,2.4v3.6h-1,.1ZM701.4,1215c-1.2,0-2.5.2-2.5,1.3s.5,1,1,1,1.2-.5,1.4-1v-1.3h.1Z"/>
    <path d="M703.9,1217.4c0-.4.3-.8.7-.8s.7.3.7.8-.3.8-.7.8-.7-.3-.7-.8Z"/>
    <path d="M711.9,1215.1c0,2.2-1.5,3.1-2.9,3.1s-2.8-1.2-2.8-3,1.3-3.1,2.9-3.1,2.8,1.2,2.8,3h0ZM707.3,1215.1c0,1.3.7,2.2,1.8,2.2s1.8-.9,1.8-2.2-.5-2.2-1.7-2.2-1.8,1.2-1.8,2.2h-.1Z"/>
    <path d="M713.2,1214v-1.8h.9v1.1h0c.3-.8.9-1.3,1.6-1.3s.2,0,.3,0v1h-.4c-.7,0-1.3.6-1.4,1.4v3.6h-1v-4h0Z"/>
    <path d="M722,1212.2v5c0,1.3-.3,2.2-.8,2.7-.6.5-1.4.7-2.1.7s-1.5-.2-1.9-.5l.3-.8c.4.2,1,.5,1.7.5,1.1,0,1.9-.6,1.9-2v-.7h0c-.3.5-1,1-1.8,1-1.4,0-2.5-1.2-2.5-2.8s1.3-3.1,2.6-3.1,1.6.5,1.8,1h0v-.9h1l-.2-.1ZM721,1214.5v-.5c-.2-.6-.7-1.1-1.5-1.1s-1.7.8-1.7,2.2.6,2.1,1.7,2.1,1.2-.4,1.5-1.1v-1.6h0Z"/>
    <path d="M722.9,1218.5l3.3-8.7h.8l-3.4,8.7h-.8.1Z"/>
    <path d="M728.3,1212.2l.8,2.9c.2.7.3,1.2.4,1.8h0c.1-.6.3-1.2.5-1.8l1-3h.9l.9,2.9c.2.7.4,1.3.5,1.9h0c0-.6.2-1.2.4-1.9l.8-2.9h1l-1.9,5.8h-1l-.9-2.8c-.2-.7-.4-1.2-.5-1.9h0c-.1.7-.3,1.3-.5,1.9l-.9,2.8h-1l-1.8-5.8h1.1l.2.1Z"/>
    <path d="M737.9,1210.6c0,.4-.2.7-.7.7s-.6-.3-.6-.7.3-.7.7-.7.7.3.7.7h-.1ZM736.7,1218v-5.8h1v5.8h-1Z"/>
    <path d="M740.5,1214.9h0c.1-.2.3-.5.5-.7l1.7-2h1.3l-2.2,2.4,2.5,3.4h-1.3l-2-2.8-.5.6v2.2h-1v-8.5h1v5.4h0Z"/>
    <path d="M746.5,1210.6c0,.4-.2.7-.7.7s-.6-.3-.6-.7.3-.7.7-.7.7.3.7.7h-.1ZM745.3,1218v-5.8h1v5.8h-1Z"/>
    <path d="M747.3,1218.5l3.3-8.7h.8l-3.4,8.7h-.8.1Z"/>
    <path d="M752.3,1209.9h4.3v.9h-3.3v2.7h3.1v.9h-3.1v3.7h-1v-8.1h0v-.1Z"/>
    <path d="M759,1210.6c0,.4-.2.7-.7.7s-.6-.3-.6-.7.3-.7.7-.7.7.3.7.7h-.1ZM757.8,1218v-5.8h1v5.8h-1Z"/>
    <path d="M760.6,1209.5h1v8.5h-1v-8.5Z"/>
    <path d="M764,1215.3c0,1.4.9,2,2,2s1.2-.1,1.6-.3l.2.8c-.4.2-1,.4-1.9.4-1.8,0-2.8-1.2-2.8-2.9s1-3.1,2.7-3.1,2.4,1.7,2.4,2.7,0,.4,0,.5h-4.1l-.1-.1ZM767.1,1214.5c0-.7-.3-1.7-1.5-1.7s-1.5,1-1.6,1.7h3.1Z"/>
    <path d="M769.2,1213.2c0-.4.3-.8.7-.8s.7.3.7.8c0,.4-.3.7-.7.7s-.7-.3-.7-.7ZM769.2,1217.4c0-.4.3-.8.7-.8s.7.3.7.8c0,.4-.3.7-.7.7s-.7-.3-.7-.7Z"/>
    <path d="M772,1209.9h4.3v.9h-3.3v2.7h3.1v.9h-3.1v3.7h-1v-8.1h0v-.1Z"/>
    <path d="M782.7,1215.1c0,2.2-1.5,3.1-2.9,3.1s-2.8-1.2-2.8-3,1.3-3.1,2.9-3.1,2.8,1.2,2.8,3h0ZM778,1215.1c0,1.3.7,2.2,1.8,2.2s1.8-.9,1.8-2.2-.5-2.2-1.7-2.2-1.8,1.2-1.8,2.2h-.1Z"/>
    <path d="M784,1213.8v-1.6h.9v1h0c.3-.6,1-1.1,1.9-1.1s2,.5,2,2.5v3.5h-1v-3.3c0-.9-.3-1.7-1.3-1.7s-1.2.5-1.4,1.1v4h-1v-4.2h0l-.1-.2Z"/>
    <path d="M791.9,1210.5v1.7h1.5v.8h-1.5v3.1c0,.7.2,1.1.8,1.1h.6v.8c-.2,0-.5.1-.9.1s-.9-.2-1.1-.4c-.3-.3-.4-.8-.4-1.5v-3.2h-.9v-.8h.9v-1.4l1-.3h0Z"/>
    <path d="M799.7,1218.9v.6h-6v-.6h6Z"/>
    <path d="M801.9,1215.5l-.8,2.5h-1.1l2.8-8.1h1.3l2.8,8.1h-1.1l-.9-2.5h-3ZM804.6,1214.6l-.8-2.3c-.2-.5-.3-1-.4-1.5h0c-.1.5-.2,1-.4,1.5l-.8,2.3h2.4Z"/>
    <path d="M808.1,1212.2l.8,2.9c.2.7.3,1.2.4,1.8h0c.1-.6.3-1.2.5-1.8l1-3h.9l.9,2.9c.2.7.4,1.3.5,1.9h0c0-.6.2-1.2.4-1.9l.8-2.9h1l-1.9,5.8h-1l-.9-2.8c-.2-.7-.4-1.2-.5-1.9h0c-.1.7-.3,1.3-.5,1.9l-.9,2.8h-1l-1.8-5.8h1.1l.2.1Z"/>
    <path d="M817,1215.3c0,1.4.9,2,2,2s1.2-.1,1.6-.3l.2.8c-.4.2-1,.4-1.9.4-1.8,0-2.8-1.2-2.8-2.9s1-3.1,2.7-3.1,2.4,1.7,2.4,2.7,0,.4,0,.5h-4.1l-.1-.1ZM820.1,1214.5c0-.7-.3-1.7-1.5-1.7s-1.5,1-1.6,1.7h3.1Z"/>
    <path d="M822.2,1216.9c.3.2.9.4,1.4.4.8,0,1.1-.4,1.1-.9s-.3-.8-1.1-1.1c-1-.4-1.5-.9-1.5-1.6s.8-1.7,2-1.7,1.1.2,1.4.4l-.3.8c-.2-.1-.7-.3-1.2-.3s-1,.4-1,.8.3.7,1.1,1c1,.4,1.5.9,1.5,1.8s-.8,1.7-2.2,1.7-1.2-.2-1.6-.4l.3-.8h0l.1-.1Z"/>
    <path d="M832.4,1215.1c0,2.2-1.5,3.1-2.9,3.1s-2.8-1.2-2.8-3,1.3-3.1,2.9-3.1,2.8,1.2,2.8,3h0ZM827.8,1215.1c0,1.3.7,2.2,1.8,2.2s1.8-.9,1.8-2.2-.5-2.2-1.7-2.2-1.8,1.2-1.8,2.2h-.1Z"/>
    <path d="M833.7,1213.8v-1.6h.9v.9h0c.3-.6.9-1.1,1.8-1.1s1.4.5,1.6,1.2h0c.2-.3.4-.6.7-.8.3-.3.7-.4,1.3-.4s1.9.5,1.9,2.5v3.4h-1v-3.3c0-1.1-.4-1.8-1.3-1.8s-1.1.4-1.2,1v4.1h-1v-3.5c0-.9-.4-1.6-1.2-1.6s-1.1.5-1.3,1.1v4h-1v-4.2h0l-.2.1Z"/>
    <path d="M844.3,1215.3c0,1.4.9,2,2,2s1.2-.1,1.6-.3l.2.8c-.4.2-1,.4-1.9.4-1.8,0-2.8-1.2-2.8-2.9s1-3.1,2.7-3.1,2.4,1.7,2.4,2.7,0,.4,0,.5h-4.1l-.1-.1ZM847.4,1214.5c0-.7-.3-1.7-1.5-1.7s-1.5,1-1.6,1.7h3.1Z"/>
    <path d="M854.9,1218.9v.6h-6v-.6h6Z"/>
    <path d="M860.1,1211.1h-3l-.3,2h.6c.6,0,1.2.1,1.7.4.6.3,1.1,1,1.1,2,0,1.5-1.2,2.7-2.9,2.7s-1.6-.2-1.9-.5l.3-.8c.3.2,1,.4,1.7.4s1.8-.7,1.8-1.7-.7-1.7-2.2-1.7-.8,0-1.1,0l.5-3.7h3.7v.9h0Z"/>
    <path d="M867,1218.9v.6h-6v-.6h6Z"/>
    <path d="M867.9,1218v-8.5h1v3.7h0c.4-.7,1-1.1,2-1.1,1.4,0,2.5,1.2,2.5,3,0,2.1-1.3,3.1-2.6,3.1s-1.5-.3-1.9-1.1h0v1h-1v-.1ZM869,1215.7v.4c.2.7.8,1.2,1.6,1.2,1.1,0,1.8-.9,1.8-2.2s-.6-2.2-1.7-2.2-1.4.5-1.6,1.3v1.4h0l-.1.1Z"/>
    <path d="M874.7,1214v-1.8h.9v1.1h0c.3-.8.9-1.3,1.6-1.3s.2,0,.3,0v1h-.4c-.7,0-1.3.6-1.4,1.4v3.6h-1v-4h0Z"/>
    <path d="M881.8,1218v-.7h-.1c-.3.5-1,.9-1.8.9s-1.8-.8-1.8-1.7c0-1.4,1.2-2.2,3.5-2.2h0c0-.6-.1-1.5-1.3-1.5s-1.1.2-1.5.4l-.2-.7c.5-.3,1.2-.5,1.9-.5,1.8,0,2.2,1.2,2.2,2.4v3.6h-1,.1ZM881.7,1215c-1.2,0-2.5.2-2.5,1.3s.5,1,1,1,1.2-.5,1.4-1v-1.3h.1Z"/>
    <path d="M884.4,1213.8v-1.6h.9v1h0c.3-.6,1-1.1,1.9-1.1s2,.5,2,2.5v3.5h-1v-3.3c0-.9-.3-1.7-1.3-1.7s-1.2.5-1.4,1.1v4h-1v-4.2h0l-.1-.2Z"/>
    <path d="M896.1,1209.5v8.5h-1v-1h0c-.3.7-1,1.1-2,1.1-1.4,0-2.5-1.2-2.5-2.9,0-1.9,1.2-3.1,2.6-3.1s1.5.4,1.8.9h0v-3.5h1.1ZM895,1214.6v-.4c-.2-.7-.7-1.2-1.5-1.2s-1.7,1-1.7,2.2.6,2.2,1.7,2.2,1.4-.5,1.5-1.3v-1.5h0Z"/>
    <path d="M897.7,1216.9c.3.2.9.4,1.4.4.8,0,1.1-.4,1.1-.9s-.3-.8-1.1-1.1c-1-.4-1.5-.9-1.5-1.6s.8-1.7,2-1.7,1.1.2,1.4.4l-.3.8c-.2-.1-.7-.3-1.2-.3s-1,.4-1,.8.3.7,1.1,1c1,.4,1.5.9,1.5,1.8s-.8,1.7-2.2,1.7-1.2-.2-1.6-.4l.3-.8h0l.1-.1Z"/>
    <path d="M907.7,1218.9v.6h-6v-.6h6Z"/>
    <path d="M908.4,1216.9c.3.2.9.4,1.4.4.8,0,1.1-.4,1.1-.9s-.3-.8-1.1-1.1c-1-.4-1.5-.9-1.5-1.6s.8-1.7,2-1.7,1.1.2,1.4.4l-.3.8c-.2-.1-.7-.3-1.2-.3s-1,.4-1,.8.3.7,1.1,1c1,.4,1.5.9,1.5,1.8s-.8,1.7-2.2,1.7-1.2-.2-1.6-.4l.3-.8h0l.1-.1Z"/>
    <path d="M913.3,1214.1v-1.9h1v1h0c.4-.7,1.1-1.1,2.1-1.1,1.4,0,2.5,1.2,2.5,2.9s-1.3,3.1-2.6,3.1-1.4-.3-1.8-.9h0v3.2h-1v-6.3h-.2ZM914.4,1215.6v.4c.2.7.8,1.2,1.6,1.2,1.1,0,1.8-.9,1.8-2.2s-.6-2.2-1.7-2.2-1.4.5-1.6,1.3v1.4h0l-.1.1Z"/>
    <path d="M925.4,1215.1c0,2.2-1.5,3.1-2.9,3.1s-2.8-1.2-2.8-3,1.3-3.1,2.9-3.1,2.8,1.2,2.8,3h0ZM920.8,1215.1c0,1.3.7,2.2,1.8,2.2s1.8-.9,1.8-2.2-.5-2.2-1.7-2.2-1.8,1.2-1.8,2.2h-.1Z"/>
    <path d="M928,1210.5v1.7h1.5v.8h-1.5v3.1c0,.7.2,1.1.8,1.1h.6v.8c-.2,0-.5.1-.9.1s-.9-.2-1.1-.4c-.3-.3-.4-.8-.4-1.5v-3.2h-.9v-.8h.9v-1.4l1-.3h0Z"/>
    <path d="M931.9,1210.6c0,.4-.2.7-.7.7s-.6-.3-.6-.7.3-.7.7-.7.7.3.7.7h-.1ZM930.7,1218v-5.8h1v5.8h-1Z"/>
    <path d="M933.6,1218v-5h-.8v-.8h.8v-.3c0-.8.2-1.6.7-2,.4-.4.9-.5,1.4-.5s.7,0,.9.2v.8c-.3,0-.5-.1-.8-.1-.9,0-1.1.8-1.1,1.7v.3h1.4v.8h-1.4v5h-1l-.1-.1Z"/>
    <path d="M937.4,1212.2l1.3,3.4c.1.4.3.8.4,1.2h0c.1-.3.2-.8.4-1.2l1.2-3.4h1.1l-1.6,4.1c-.8,2-1.3,3-2,3.6-.5.5-1,.6-1.3.7l-.3-.9c.3,0,.6-.2.9-.5.3-.2.7-.6.9-1.2v-.5l-2.2-5.3h1.2,0Z"/>
    <path d="M942,1217.4c0-.4.3-.8.7-.8s.7.3.7.8-.3.8-.7.8-.7-.3-.7-.8Z"/>
    <path d="M944.5,1216.9c.3.2.9.4,1.4.4.8,0,1.1-.4,1.1-.9s-.3-.8-1.1-1.1c-1-.4-1.5-.9-1.5-1.6s.8-1.7,2-1.7,1.1.2,1.4.4l-.3.8c-.2-.1-.7-.3-1.2-.3s-1,.4-1,.8.3.7,1.1,1c1,.4,1.5.9,1.5,1.8s-.8,1.7-2.2,1.7-1.2-.2-1.6-.4l.3-.8h0l.1-.1Z"/>
    <path d="M949.8,1212.2l1.1,3.3c.2.5.3,1,.5,1.5h0c.1-.5.3-1,.5-1.5l1.1-3.3h1.1l-2.3,5.8h-1l-2.2-5.8h1.2Z"/>
    <path d="M960.1,1212.2v5c0,1.3-.3,2.2-.8,2.7-.6.5-1.4.7-2.1.7s-1.5-.2-1.9-.5l.3-.8c.4.2,1,.5,1.7.5,1.1,0,1.9-.6,1.9-2v-.7h0c-.3.5-1,1-1.8,1-1.4,0-2.5-1.2-2.5-2.8s1.3-3.1,2.6-3.1,1.6.5,1.8,1h0v-.9h1l-.2-.1ZM959,1214.5v-.5c-.2-.6-.7-1.1-1.5-1.1s-1.7.8-1.7,2.2.6,2.1,1.7,2.1,1.2-.4,1.5-1.1v-1.6h0Z"/>
  </g>
  <g>
    <path d="M180.5,0C80.8,0,0,80.99,0,180.98c9.5,240.08,351.5,239.98,361,0C361,80.99,280.2,0,180.5,0ZM180.5,284.57c-57.1,0-103.6-46.5-103.6-103.59,2.8-70.89,55.7-103.09,103.6-103.09h0c47.9,0,100.8,32.2,103.6,102.89,0,57.39-46.5,103.89-103.6,103.89v-.1Z"/>
    <path d="M180.5,89.69c-60.6,0-90.1,47.4-91.8,91.49,0,50.39,41.2,91.59,91.8,91.59s91.8-41.2,91.8-91.79c-1.7-43.8-31.2-91.29-91.8-91.29h0ZM146.5,229.88v-97.69l82.8,46.7-82.8,50.99Z"/>
  </g>
</svg>