<svg xmlns="http://www.w3.org/2000/svg" style="display:none">
  <!-- Apple Music -->
  <symbol id="icon-apple_music" viewBox="0 0 48 48">
    <path fill="currentColor" fill-rule="evenodd" d="M24,0C10.74,0,0,10.74,0,24s10.74,24,24,24,24-10.74,24-24S37.26,0,24,0ZM33.99,30.5c0,.55,0,1.04-.12,1.59-.11.53-.31,1.03-.63,1.48-.31.45-.71.82-1.18,1.09-.47.28-.97.44-1.5.55-.99.2-1.67.25-2.31.12-.62-.12-1.14-.41-1.55-.79-.62-.57-1-1.33-1.09-2.13-.1-.94.21-1.94.92-2.68.36-.37.8-.67,1.4-.9.62-.24,1.31-.39,2.37-.6.28-.06.56-.11.84-.17.37-.07.68-.17.93-.48.26-.31.26-.69.26-1.07v-9.49c0-.73-.33-.92-1.02-.79-.5.1-11.14,2.24-11.14,2.24-.6.15-.81.34-.81,1.09v13.9c0,.55-.03,1.04-.14,1.59-.11.53-.31,1.03-.63,1.48-.31.45-.71.82-1.18,1.09-.47.28-.97.45-1.5.55-.99.2-1.67.25-2.31.12-.62-.12-1.14-.41-1.55-.8-.62-.57-.98-1.33-1.06-2.13-.1-.94.19-1.94.89-2.68.36-.37.8-.67,1.4-.9.62-.24,1.31-.39,2.37-.6.28-.06.56-.11.84-.17.37-.07.68-.17.93-.48s.28-.67.28-1.05V13.45c0-.22.02-.36.03-.43.05-.34.19-.63.43-.83.2-.17.46-.29.8-.36h0l12.8-2.58c.11-.02,1.04-.19,1.14-.2.69-.06,1.08.39,1.08,1.13v20.32h0Z"/>
  </symbol>

  <!-- Spotify -->
  <symbol id="icon-spotify" viewBox="0 0 48 48">
    <path fill="currentColor" fill-rule="evenodd" d="M38.16,21.36c-7.68-4.56-20.52-5.04-27.84-2.76-1.2.36-2.4-.36-2.76-1.44-.36-1.2.36-2.4,1.44-2.76,8.52-2.52,22.56-2.04,31.44,3.24,1.08.6,1.44,2.04.84,3.12-.6.84-2.04,1.2-3.12.6M37.92,28.08c-.6.84-1.68,1.2-2.52.6-6.48-3.96-16.32-5.16-23.88-2.76-.96.24-2.04-.24-2.28-1.2-.24-.96.24-2.04,1.2-2.28,8.76-2.64,19.56-1.32,27,3.24.72.36,1.08,1.56.48,2.4M35.04,34.68c-.48.72-1.32.96-2.04.48-5.64-3.48-12.72-4.2-21.12-2.28-.84.24-1.56-.36-1.8-1.08-.24-.84.36-1.56,1.08-1.8,9.12-2.04,17.04-1.2,23.28,2.64.84.36.96,1.32.6,2.04M24,0C10.8,0,0,10.8,0,24s10.8,24,24,24,24-10.8,24-24S37.32,0,24,0"/>
  </symbol>

  <!-- YouTube Music -->
  <symbol id="icon-youtube_music" viewBox="0 0 48 48">
    <path fill="currentColor" d="M24,0C10.74,0,0,10.74,0,24s10.74,24,24,24,24-10.74,24-24S37.26,0,24,0ZM24,37.85h0c-7.59-.01-13.78-6.2-13.78-13.79.37-9.43,7.41-13.71,13.78-13.71s13.4,4.28,13.78,13.68c0,7.63-6.18,13.81-13.78,13.81Z"/>
    <path fill="currentColor" d="M24,11.93c-8.06,0-11.98,6.3-12.21,12.16,0,6.7,5.48,12.18,12.21,12.18s12.21-5.48,12.21-12.2c-.23-5.82-4.15-12.14-12.21-12.14h0ZM19.48,30.57v-12.99l11.01,6.21-11.01,6.78Z"/>
  </symbol>
</svg>